<?xml version="1.0" encoding="UTF-8" standalone="yes"?>
<svg xmlns="http://www.w3.org/2000/svg">
<text x="1431699578" y="1431699528" fill="" stroke="" font-size="" font-family="start" font-weight="v_O_v
" transform="rotate(36.120000 1431658754 1431699528)" text-anchor=""></text>
<line x1="1431701304" y1="1431688704" x2="0" y2="1" stroke="blue" transform="rotate(3.140000 1431700428 1431700378)" />
<line x1="1431703080" y1="1431688704" x2="0" y2="0" stroke="blue" transform="rotate(42.300000 1431700428 1431700378)" />
<line x1="1431704856" y1="1431688704" x2="0" y2="1" stroke="blue" transform="rotate(25.300000 1431700428 1431700378)" />
<line x1="1431706632" y1="1431688704" x2="0" y2="1" stroke="blue" transform="rotate(36.200000 1431700428 1431700378)" />
<rect x="1431708458" y="1431708408" width="0" height="0" fill="blue" stroke="" transform="rotate(27.700000 1431700378 0)" 
<circle cx="1431710234" cy="1431710184" r="0" fill="(null)" stroke="blue" />
<rect x="1431712010" y="1431711960" width="0" height="1" fill="blue" stroke="" transform="rotate(19.800000 1431700378 0)" 
<rect x="1431713786" y="1431713736" width="0" height="1" fill="blue" stroke="" transform="rotate(19.800000 1431700378 0)" 
<line x1="1431715512" y1="1431688704" x2="0" y2="0" stroke="blue" transform="rotate(30.400000 1431700428 1431700378)" />
<rect x="1431717338" y="1431717288" width="0" height="1" fill="blue" stroke="" transform="rotate(19.800000 1431700378 0)" 
<rect x="1431719114" y="1431719064" width="0" height="1" fill="blue" stroke="" transform="rotate(19.800000 1431700378 0)" 
<line x1="1431720840" y1="1431688704" x2="0" y2="1" stroke="blue" transform="rotate(3.140000 1431700428 1431700378)" />
<line x1="1431722616" y1="1431688704" x2="0" y2="0" stroke="blue" transform="rotate(42.300000 1431700428 1431700378)" />
<line x1="1431724392" y1="1431688704" x2="0" y2="1" stroke="blue" transform="rotate(25.300000 1431700428 1431700378)" />
<line x1="1431726168" y1="1431688704" x2="0" y2="1" stroke="blue" transform="rotate(36.200000 1431700428 1431700378)" />
<rect x="1431727994" y="1431727944" width="0" height="0" fill="blue" stroke="" transform="rotate(27.700000 1431700378 0)" 
<circle cx="1431729770" cy="1431729720" r="0" fill="(null)" stroke="blue" />
<rect x="1431731546" y="1431731496" width="0" height="1" fill="blue" stroke="" transform="rotate(19.800000 1431700378 0)" 
<rect x="1431733322" y="1431733272" width="0" height="1" fill="blue" stroke="" transform="rotate(19.800000 1431700378 0)" 
<line x1="1431735048" y1="1431688704" x2="0" y2="0" stroke="blue" transform="rotate(30.400000 1431700428 1431700378)" />
<rect x="1431736874" y="1431736824" width="0" height="1" fill="blue" stroke="" transform="rotate(19.800000 1431700378 0)" 
<rect x="1431738650" y="1431738600" width="0" height="1" fill="blue" stroke="" transform="rotate(19.800000 1431700378 0)" 
<line x1="1431740376" y1="1431688704" x2="0" y2="1" stroke="blue" transform="rotate(3.140000 1431700428 1431700378)" />
<line x1="1431742152" y1="1431688704" x2="0" y2="0" stroke="blue" transform="rotate(42.300000 1431700428 1431700378)" />
<line x1="1431743928" y1="1431688704" x2="0" y2="1" stroke="blue" transform="rotate(25.300000 1431700428 1431700378)" />
<line x1="1431745704" y1="1431688704" x2="0" y2="1" stroke="blue" transform="rotate(36.200000 1431700428 1431700378)" />
<rect x="1431747530" y="1431747480" width="0" height="0" fill="blue" stroke="" transform="rotate(27.700000 1431700378 0)" 
<circle cx="1431749306" cy="1431749256" r="0" fill="(null)" stroke="blue" />
<rect x="1431751082" y="1431751032" width="0" height="1" fill="blue" stroke="" transform="rotate(19.800000 1431700378 0)" 
<rect x="1431752858" y="1431752808" width="0" height="1" fill="blue" stroke="" transform="rotate(19.800000 1431700378 0)" 
<line x1="1431754584" y1="1431688704" x2="0" y2="0" stroke="blue" transform="rotate(30.400000 1431700428 1431700378)" />
<rect x="1431756410" y="1431756360" width="0" height="1" fill="blue" stroke="" transform="rotate(19.800000 1431700378 0)" 
<rect x="1431758186" y="1431758136" width="0" height="1" fill="blue" stroke="" transform="rotate(19.800000 1431700378 0)" 
<text x="1431759962" y="1431759912" fill="" stroke="" font-size="" font-family="start" font-weight="|-T-|
" transform="rotate(88.081524 1431658754 1431759912)" text-anchor=""></text>
</svg>
